<?xml version="1.0" encoding="UTF-8"?>
<svg id="Layer_1" data-name="Layer 1" xmlns="http://www.w3.org/2000/svg" xmlns:xlink="http://www.w3.org/1999/xlink" viewBox="0 0 1184.95 746.96">
  <defs>
    <style>
      .cls-1 {
        fill: #fff;
      }

      .cls-2 {
        filter: url(#drop-shadow-1);
      }
    </style>
    <filter id="drop-shadow-1" filterUnits="userSpaceOnUse">
      <feOffset dx="7" dy="7"/>
      <feGaussianBlur result="blur" stdDeviation="5"/>
      <feFlood flood-color="#000" flood-opacity=".75"/>
      <feComposite in2="blur" operator="in"/>
      <feComposite in="SourceGraphic"/>
    </filter>
  </defs>
  <g id="Layer_1-2" data-name="Layer 1" class="cls-2">
    <g>
      <path class="cls-1" d="M1139.43,491.6c-11.5-3.8-22,6.3-47.1,23.6,0,0-26.2,17.9-55,33-22,11.5-33.3,17.3-50.3,20.4-20.3,3.6-37.1,1.6-48.7,0-21.5-2.8-27.8-7.5-44-11-27.3-6-44-.5-73.8,3.1-28.4,3.5-37.5,1.3-95.8,0-87.5-1.9-105.2,3.1-245,1.6-73.8-.8-157.8-3-221.4,1.6-50.3,3.6-75.2,5.5-80.1,6.3-21.8,3.9-34.2,7.9-53.4,4.7-12.1-2-22.6-6.1-48.7-22C26.63,522.9,5.13,501.9,.73,505.8c-2.2,1.9-.5,10.7,20.4,42.4,23.4,22.3,61.9,52,114.6,61.2,26.5,4.6,47,2.4,55,1.6,77.4-7.9,198.3-6.3,431.9-3.1,126.3,1.7,188.3-.5,312.5-4.7,6.1-.2,27.3-1.1,55-6.3,87-16.5,167.2-63.8,163.3-89.5-.8-5.8-6.6-13.3-14-15.8Z"/>
      <path class="cls-1" d="M258.43,636.1c-5.8-.8-30.9-4.2-45.5,14.1-11,13.8-10.5,33.3-3.1,47.1,13.2,24.5,44.1,23.7,47.1,23.6,23.1-.9,51.2-17.4,51.8-40.8,.6-24.4-28.8-41.1-50.3-44Z"/>
      <path class="cls-1" d="M880.33,636.1c-40.8,1.3-79,2.5-91.1,26.7-8.8,17.4-.5,39.6,7.9,51.8,23.6,34.9,79.5,38.6,117.8,25.1,43.5-15.2,83.1-59,73.8-83.2-9.2-23.6-62.3-22-108.4-20.4Z"/>
      <path class="cls-1" d="M42.13,507.8c7.9,3.1,48.8,3.8,55,6.3,23.6,9.4-6.3-40.5-11-66-14.1-76.9-4.7-139.3-4.7-160.2,0-22,.9-26.5,14.1-23.6,16.3,3.6,37.5,34.4,42.4,31.4,5.3-3.3-4.2-40.4,1.6-53.4,8-17.9-34.1,11.8-46,1.1-8-7.1-6.4-41.3-4.2-52.9,14.6-74.9-12.6-124.8,6.3-133.5,6.8-3.1,11.6,0,29.8,0s18.8,1.6,36.1,4.7c21.4,3.9,25.9,14,37.7,7.9,8.6-4.4,6.3-18.8,4.7-28.3-2.4-15.1,8-21.5,1.6-23.6-18.7-6.1-52.9,.9-64.9,2.7-18.7,2.7-46.2,.8-83.2-20.4,6.3,67.7,4.4,122.5,1.6,160.2-3.5,45.7-3.8,92.3-10.5,121.4-4.7,20.4,0,138.2-3.1,163.3-1.2,9.2-21.3,55.6-3.3,62.9Z"/>
      <path class="cls-1" d="M153.03,250.4c5,49.2,13.2,86.7,6,121.4,.8,61.7-22,134-12.6,149.7,19.3,32,28.3-14.1,68,9.7-6.3-36.1-7.5-128.3-10.1-155.6-3.1-34.5-13.5-69.3-2.5-88.1,11.5-19.6,32.5,86.5,35.6,106.2,4.9,30.2-15.5,31.1-5.8,66.6,9.6,34.9-1.6,33,4.7,84.8,2.4,18.8,31.4-3.1,34.5-17.3,14.4-64.7,20.4-169.6-26.7-232.4-13.2-17.3-10.7-28.7,22.3-20.9,31.6,7.4-8.2-208.2-21.5-191.9-29.8,13.8-60.5,18.7-85,19.6-37,8.4-15.1,68.6-6.9,148.2Zm27.8-71.6c2.4-9.1,8.8-14.8,9.9-15.7,9-7.7,16.3-4.2,27.3-12.4,8.5-6.3,9.3-12.2,12.4-11.6,5.5,1.1,.6,18.7,8.3,44.8,3.3,11.1,8.2,37.1,9.1,54.5,.5,9-16-7.9-18.1-6.9-6.4,3.1-8-1.7-22,0-10.7,1.4-9.4,2.4-14.6,.5-2.8-.9-2.7-5.5-4.1-14.1-4-24.1-11.2-27.5-8.2-39.1Z"/>
      <path class="cls-1" d="M297.23,200.6c1.4,33.1-1.9,28.7-7.4,94.7-3.5,40.7-.5,61.1,1.6,73.8,3.3,21.4,10.7,41.9,3.1,69.1-2.4,8.5-5.5,41.8-8.8,52.6-4.1,13.5-12.1,13.3,4.1,32.2,.9,1.3,8.2,9.6,14,7.5,8-2.4,100,2.5,100-3.8,0-6.9-19.3-51.7-10.7-64.5,15.4-22.8-29.1,5.8-61.2,11.3-5.7,.9,16.8-77.7,5.8-110.7-6.8-20.4-14.1-46-11.3-81.2,6-3.3,28,11.9,37.1,18.4,11,7.9,31.4,18.2,28.1,3.3-3.1-14.1-2.5-34.4-4.1-56.4-1.1-16.3-26.5,4.7-36,9.4-7.7,3.8-25.6,4.9-23.6-3.6,3.1-12.7,6.8-63.1,6.6-85.3-.2-21.8-4.1-36.4-4.1-36.4-3.5-13.5-9.6-15.2-5-23.1,2.5-4.1,.5-12.2,3.6-13.8,8.5-4.4,12.9-3.6,31.4,3.1,23.2,8.5,45.9,7.5,43.5-1.9-1.4-5.7,13-18.8,4.2-26.4-6-5.2-38.8-11.8-44.8-11.8-17.1,0-37.1-1.9-48.1,0-15.1,2.5-30.2,11.1-34.1,16.6-7.1,9.7,2.2,35.2,6.8,48.1,8.6,23.8,7.7,38,9.3,78.8Z"/>
      <path class="cls-1" d="M455.93,519.1c7.2-1.9,24.8,16.2,31.9,2.2,4.9-9.7,15.5-1.7,20.6-8.5,6.6-8.8,10.2-17,24-24.3,4.4-2.4-4.2-26.2,1.9-36.9,1.3-2,8.3-14.9,8.5-33,.2-13.5,5.5-10.5,6-23.9,.3-5.2,0-14.8,6.1-25.1,6.8-11.1-1.7-25.6,2.5-34.7,3.3-7.1,9-4.2,6.8-26.2-5.3-52.9-3.1-49.6-6.3-62.8-3.8-15.5-7.1-20.6-10.7-40.8-.6-4.1-2.2-12.7-3.1-23.6-3.1-36.4,5-47.4,0-67.5-3.5-14-10.5-21.7-18.1-29.8-10.5-11.5-20.4-14.9-40.4-22-9.9-3.5-16.8-4.4-30.8-6.3-11.8-1.6-25.1,2.8-36.9-3.6-4.1,16.6-.9,13.3,0,44.8,.2,7.7,10.2,25.4,6.4,44-4.7,22.8,3.5,22.9,0,41.1-3,15.5-2.8,21.2,0,63.3,1.9,29.8,2.8,36.7,0,48.4-5.5,22.3-6.1,32.7-8.2,52-1.7,17,.3,28.1,2.7,52.8,2.4,25.1-4.1,29.8-4.2,66,0,23.7-7.4,56.7-.8,66.4,17.5-6.5,33.5-9.5,42.1-12Zm-10.8-155.2c-.2-14,2-25.8,4.4-37.8,5-26.2,9.6-29.1,9.9-45.2,.3-16.3-4.4-17.6-6.6-42.2-.9-10.1,8-15.1,10.2-30,4.4-30.8,6.6-25.4,6.4-48.1-.2-21.5-.6-33.4,3-37.8,3.3-3.9,11.8,3.1,17,7.5,9.6,8.2,.8,14.3,4.1,23.1,6.3,16.5,15.7,10.5,15.9,42.9,0,17,3.9,9.3,6.4,41.5,2.2,26.7,2,29.4,5.2,47.3,3.6,20.1,3.8,24.5,3.3,36.4-.8,18.4-2.2,23.6-5,42.2-3.1,21.7-12.6,24.3-15.4,51.7-1.1,11,6.1,26.1,.5,32-9.7,10.2-13.8,10.4-19.8,20.7-3.8,6.6-18.2-2.4-22.6,2.7-4.6,5.3-14.3,4.1-16.6-1.4-3.1-7.4,8.3-14.8,11.9-32.5,4.9-24.8-11.9-35.6-12.2-73Z"/>
      <path class="cls-1" d="M576.93,345.7c-.8,10.2-.2,33.4-6.9,67.4-11.6,58.4-22.3,102.1-.5,95.3,24-7.4,17.7,2,33.6,6.9,12.4,3.8-.5-65.6,3.1-78.5,.8-3,3.1-48.8,3.1-66,0-42.4,6.3-28.3,15.7-18.8,11,11,13.3,26.7,13.3,36.1,0,24.2-4.1,105.2-4.1,119.4,0,11.5,25.1-15.7,40.8-7.9,10.4,5.2,25.3-101.9,18.2-118.3-9.4-22-9-30.2-21.5-34.9-20.6-7.7-35.8-19.8-32.4-23.2,3.1-3.1,47.4,21.4,47.4-25.8,0-58.1,9.7-91.2,9.7-179.7,0-25.1-67.8-32.2-77.1-29.1-9.4,3.3-62.7,5.8-62.7,19.9,0,24.3,.2,44.6,7.9,120.1,5.1,48.5,14.6,89.5,12.4,117.1Zm31.4-204.6c2-5.8,8.6,.9,18.8-4.4,2-1.1,24-15.4,30.8-10.2,7.7,5.8,1.4,25.8,1.4,84.8,0,23.4-1.4,41.1,0,46.8,2,8-5.8,11.6-5.3,19,.5,7.7-4.7,11.8-6.8,14.6-5.5,8.5-24.8,7.4-29.5-1.4-3-5.5-3.8-28.1-5.3-39.4-2.7-19-3.1-6.8-9.4-42.4-5.6-31.8,3.5-62.2,5.3-67.4Z"/>
      <path class="cls-1" d="M703.13,514.5c.5,.5,47.7,.8,56.2,0-1.7-16.2-14.3-46.5-10.8-57.6,11.3-37.5,.3-26.9,11.1-53.9,12.2-30.3,1.9-30.9,2-51.4,.2-22.3,17.6-39.1,5.8-68.8-7.5-19.3-6.8-27.6,3.6-74.1,11.8-52.3,13.8-64.9,9-90-4.9-25.3-20.9-51.7-33-50.3-13.7,1.7-19.6,39.1-23.6,64.4-5.7,35.8-3.5,57.5-3.1,106.8,.2,29.1,.3,53.7-1.6,84.8-3.8,62.8-5.7,94.2-12.6,122.5-6.6,27.9-16.2,54.3-3,67.6Z"/>
      <path class="cls-1" d="M781.83,520.3c34.5,0,20.4,10.1,38.8,10.5,19.3,.5,3-12.9,4.7-29.8,3.1-31.9,10.4-88.9,22.5-117.3,4.7-11,40.8-23.6,42.4-11,6.8,54.5-46.2,129.9-14.1,131.9,12.6,.8,58.1,5.5,47.1-6.3-18.8-20.1,26.1-151.4-14.1-174.3-11-6.3-22.3,17-39.3,12.6-6.9-1.7,19.3-7.9,22-18.8,7.9-33.1,15.7-63.4,11-105.2-6.3-55,10.4-104.1,3.1-111.5-4.7-4.7-15.1,16.6-22,18.8-17.4,5.7-9.6,67.5-7.9,130.3,1.4,52.5-14.1,47.1-28.3,61.2-3.1,3.1-5.5-9.3-6.3-20.4-3.1-48.7-7.2-73.3,3.1-114.6,3.1-12.6-1.9-33.1,4.7-69.1,6-32.7,15.7-67.7-15.7-62.8-23.1,3.6-33,9.4-28.3,33,5.2,25.8,5.2,35,7.9,89.5,1.4,29.5-6.1,30.8-9.4,86.4-3.8,64.7,.5,61.7-3.1,108.4-6.1,77.8-45.2,158.5-18.8,158.5Z"/>
      <path class="cls-1" d="M969.83,199.5c7.5-1.4,5.8-12.6,17.3-20.4,11.5-7.9,24.3-4.1,25.1-7.9,1.1-5.3-25-9.1-28.3-23.6-2.5-10.5,10.1-15.4,11-33,.2-3.1,1.1-18.2-9.4-26.7-9.6-7.9-24.7-6.6-34.5,0-10.1,6.6-15.4,19-14.1,29.8,2,16.6,32.8,39.9,18.8,34.5-35.3-13.7-21.8,3.6-7.9,23.6,7.2,10.5,13.5,25.3,22,23.7Z"/>
      <path class="cls-1" d="M1183.43,223c-4.4-13-19-24.8-29.8-22-14,3.8-9,28.6-23.6,36.1-20.6,10.7-44.9-31.7-87.9-29.8-25.1,1.1-43.7,16.6-51.8,23.6-10.2,8.6-30.3,25.6-33,53.4-2.2,22.5,7.1,52.9,25.1,58.1,22.9,6.6,44.1-31.9,62.8-23.6,13.5,6,14,30.8,14.1,37.7,.6,25.8-12.9,58.9-31.4,61.2-20.9,2.5-29.8-36.4-62.8-37.7-2,0-20.3-.5-28.3,11-2.7,3.8-4.6,9.3-1.6,28.3,4.6,29.5,6.9,44.3,17.3,50.3,11.3,6.4,19-3.6,47.1-3.1,18.2,.3,19.9,4.6,37.7,6.3,8.2,.8,55.7,5.5,69.1-15.7,11.8-18.7-15.2-37.4-6.3-70.7,6.9-25.4,26.1-27.3,26.7-48.7,.6-19.9-15.5-39.1-31.4-48.7-33.6-20.3-71.6-.3-76.9-12.6-3.6-8.3,9.9-27,26.7-31.4,15.9-4.1,24.3,7.2,62.8,20.4,23.6,8.2,35.5,12.1,47.1,7.9,18.4-6.6,35-30.3,28.3-50.3Z"/>
    </g>
  </g>
</svg>