<?xml version="1.0" encoding="UTF-8" standalone="no"?>
<!-- Created with Inkscape (http://www.inkscape.org/) -->

<svg
   width="1920"
   height="1080"
   viewBox="0 0 1920 1080"
   version="1.1"
   id="svg5"
   inkscape:version="1.2.1 (9c6d41e410, 2022-07-14)"
   sodipodi:docname="DOUGNHNUTTT.svg"
   xmlns:inkscape="http://www.inkscape.org/namespaces/inkscape"
   xmlns:sodipodi="http://sodipodi.sourceforge.net/DTD/sodipodi-0.dtd"
   xmlns="http://www.w3.org/2000/svg"
   xmlns:svg="http://www.w3.org/2000/svg">
  <sodipodi:namedview
     id="namedview7"
     pagecolor="#ffffff"
     bordercolor="#000000"
     borderopacity="0.25"
     inkscape:showpageshadow="2"
     inkscape:pageopacity="0.0"
     inkscape:pagecheckerboard="0"
     inkscape:deskcolor="#d1d1d1"
     inkscape:document-units="px"
     showgrid="false"
     inkscape:zoom="1"
     inkscape:cx="1278.5"
     inkscape:cy="530"
     inkscape:window-width="1920"
     inkscape:window-height="1017"
     inkscape:window-x="1072"
     inkscape:window-y="379"
     inkscape:window-maximized="1"
     inkscape:current-layer="layer1" />
  <defs
     id="defs2" />
  <g
     inkscape:label="Layer 1"
     inkscape:groupmode="layer"
     id="layer1">
    <g
       id="g12588">
      <path
         id="path234"
         style="opacity:1;fill:#a05a2c;fill-opacity:0.71063828;stroke:none;stroke-width:31.25;stroke-linecap:round;stroke-linejoin:round"
         d="M 1011.2051 306.20508 A 250 250 0 0 0 761.20508 556.20508 A 250 250 0 0 0 1011.2051 806.20508 A 250 250 0 0 0 1261.2051 556.20508 A 250 250 0 0 0 1215.7988 412.66406 A 34.485659 34.485659 0 0 1 1195.4238 405.26758 A 34.485659 34.485659 0 0 1 1182.5645 376.59961 A 47.190902 47.190902 0 0 1 1124.9375 375.75586 A 47.190902 47.190902 0 0 1 1109.1543 326.24414 A 250 250 0 0 0 1106.9062 325.24805 A 34.485659 34.485659 0 0 1 1075.9531 319.2832 A 34.485659 34.485659 0 0 1 1070.1621 313.29492 A 250 250 0 0 0 1011.2051 306.20508 z M 1011.2051 468.70508 A 87.5 87.5 0 0 1 1098.7051 556.20508 A 87.5 87.5 0 0 1 1011.2051 643.70508 A 87.5 87.5 0 0 1 923.70508 556.20508 A 87.5 87.5 0 0 1 1011.2051 468.70508 z " />
      <g
         id="path4721"
         style="fill:#1e130d;fill-opacity:1">
        <path
           id="path4725"
           style="color:#000000;fill:#1e130d;stroke-width:25;stroke-linecap:round;stroke-linejoin:round;fill-opacity:1"
           d="M 1008.3047 285.73242 C 970.35039 286.14762 932.55596 294.60738 898.06836 310.5332 C 867.59323 324.55669 839.80759 344.27563 816.52539 368.4375 C 791.70788 394.1732 772.05819 424.81768 759.12305 458.18164 C 747.26103 488.65517 741.07439 521.23243 740.79688 553.89453 A 12.50125 12.50125 0 0 0 740.79688 554 C 740.79688 568.9769 739.80731 586.65995 743.58008 602.71484 C 745.46646 610.74231 748.67162 618.741 755.0293 625.10547 C 761.38695 631.46994 770.87089 635.1875 781.0957 635.1875 C 798.1181 635.1875 811.5965 625.79048 817.83789 614.10938 C 824.07928 602.42827 825.47213 589.62354 826.89062 577.88477 C 828.30914 566.14597 829.74684 555.3264 832.25195 549.4668 C 834.75709 543.60717 834.89155 542.58398 842.30273 542.58398 C 851.05884 542.58398 854.20061 544.92075 857.87109 549.70312 C 861.5416 554.48552 864.56036 562.64119 867.11133 571.84766 C 869.6623 581.05412 871.69313 591.04832 876.16992 600.34961 C 878.40833 605.00024 881.38126 609.65961 886.04297 613.39258 C 890.70466 617.12553 897.14661 619.4375 903.63867 619.4375 C 913.46888 619.4375 921.85226 617.83531 928.81641 613.50195 C 935.78053 609.16861 940.24511 602.08114 942.26367 595.28906 C 946.28473 581.75905 944.25762 568.38714 944.32031 554.23633 C 944.45273 549.54385 945.01806 544.95583 946.08203 540.57617 A 12.50125 12.50125 0 0 0 946.0957 540.51758 C 948.3387 531.09002 952.7752 522.07385 958.85742 514.42383 C 958.86042 514.41983 958.86223 514.41581 958.86523 514.41211 C 959.39329 513.76167 960.01795 512.99762 960.41406 512.54102 A 12.50125 12.50125 0 0 0 960.46289 512.48438 C 969.00825 502.51403 980.77346 495.09166 993.4668 491.625 A 12.50125 12.50125 0 0 0 993.50977 491.61328 C 998.31328 490.28329 1003.3134 489.50983 1008.3594 489.29102 A 12.50125 12.50125 0 0 0 1008.4297 489.28711 C 1009.0772 489.25541 1010.2525 489.23398 1011.3926 489.20898 C 1012.5861 489.22048 1013.6583 489.24719 1014.6855 489.30469 A 12.50125 12.50125 0 0 0 1014.7051 489.30664 C 1016.0513 489.38004 1017.1435 489.46635 1018.4766 489.61133 C 1021.256 489.92029 1023.9662 490.38014 1026.543 490.99219 A 12.50125 12.50125 0 0 0 1026.5801 491 C 1028.6536 491.48598 1031.0085 492.17133 1032.9648 492.83984 A 12.50125 12.50125 0 0 0 1032.9863 492.84766 C 1048.9469 498.26836 1062.9437 510.32139 1070.6465 525.30273 A 12.50125 12.50125 0 0 0 1070.6777 525.36328 C 1075.2789 534.19435 1077.8141 544.2267 1078.1055 554.3125 C 1078.1055 574.60646 1078.3907 593.6306 1083.002 609.66016 C 1085.3196 617.71677 1088.848 625.31158 1095.0488 631.24609 C 1101.2497 637.18062 1110.1816 640.61719 1119.498 640.61719 C 1137.6702 640.61719 1151.3201 628.39265 1157.1602 614.61328 C 1163.0002 600.83394 1164.3345 585.24498 1165.627 570.37695 C 1166.9194 555.50895 1168.1196 541.26251 1170.8613 532.65039 C 1172.2322 528.34432 1173.8904 525.72107 1175.0898 524.57617 C 1176.2893 523.43127 1176.8693 522.9834 1179.8613 522.98438 C 1182.7475 522.98532 1183.8113 523.5139 1185.752 525.39648 C 1187.6926 527.27909 1190.0513 531.02908 1192.0684 536.43945 C 1196.1025 547.26022 1198.6352 563.967 1200.8145 581.12695 C 1202.9937 598.28693 1204.8572 615.87031 1209.3594 630.66797 C 1211.6105 638.06679 1214.4676 644.93703 1219.4766 650.79688 C 1224.4855 656.65672 1232.628 661.10938 1241.2344 661.10938 C 1251.7642 661.10938 1259.1723 653.76414 1263.7441 646.42773 C 1268.316 639.09135 1271.4262 630.31881 1273.9883 620.41016 C 1279.1125 600.59285 1281.6289 576.28071 1281.6289 554 A 12.50125 12.50125 0 0 0 1281.6289 553.90039 C 1281.4647 533.44492 1279.0365 512.97958 1274.2051 493.01953 L 1274.2051 493.00977 C 1266.8864 462.50676 1254.2135 433.3436 1236.9219 407.16992 A 34.485659 38.133181 38.570057 0 1 1190.5762 411.34766 A 34.485659 38.133181 38.570057 0 1 1178.666 381.48828 A 47.190902 52.182248 38.570057 0 1 1118.7148 383.5625 A 47.190902 52.182248 38.570057 0 1 1105.293 329.85547 A 34.485659 38.133181 38.570057 0 1 1070.627 325.96289 A 34.485659 38.133181 38.570057 0 1 1060.1133 290.1875 C 1053.9769 289.05833 1047.8028 288.12311 1041.5977 287.42578 C 1030.5462 286.17663 1019.4245 285.615 1008.3145 285.73242 L 1008.3145 285.73438 A 12.50125 12.50125 0 0 0 1008.3066 285.73242 L 1008.3047 285.73242 z " />
      </g>
      <path
         id="path3112"
         style="opacity:1;fill:#3d2313;fill-opacity:1;stroke:none;stroke-width:31.25;stroke-linecap:round;stroke-linejoin:round"
         d="M 1008.4492 298.23242 C 972.26173 298.62723 936.16894 306.70647 903.30859 321.88086 C 874.25123 335.24964 847.72195 354.07814 825.52734 377.11133 C 801.86291 401.65028 783.10221 430.9094 770.77734 462.69922 C 759.47146 491.73805 753.56162 522.84139 753.29688 554 C 753.29688 584.69488 750.56742 622.6875 781.0957 622.6875 C 834.8217 622.6875 795.99373 530.08398 842.30273 530.08398 C 890.59032 530.08398 871.84734 606.9375 903.63867 606.9375 C 937.28549 606.9375 931.64763 584.02753 931.81641 554 C 931.96456 548.48669 932.63268 542.98803 933.93555 537.625 C 936.61919 526.3453 941.86793 515.7006 949.08203 506.63086 C 949.62087 505.96659 950.33934 505.07965 950.97266 504.34961 C 961.18767 492.43121 975.03515 483.7009 990.17383 479.56641 C 995.9242 477.97426 1001.8582 477.06119 1007.8184 476.80273 C 1008.8857 476.75053 1010.2212 476.73138 1011.3848 476.70508 C 1012.7674 476.71688 1014.0741 476.75088 1015.3848 476.82422 C 1016.9252 476.90822 1018.299 477.01751 1019.8574 477.1875 C 1023.1006 477.54801 1026.3098 478.08858 1029.4316 478.83008 C 1031.9697 479.42494 1034.6478 480.20592 1037.0059 481.01172 C 1056.1288 487.50649 1072.5275 501.62416 1081.7637 519.58789 C 1087.2868 530.18853 1090.2657 542.05807 1090.6035 554 C 1090.6035 594.38707 1092.7336 628.11719 1119.498 628.11719 C 1174.2955 628.11719 1134.3784 510.46939 1179.8652 510.48438 C 1227.2466 510.49997 1200.9609 648.60938 1241.2344 648.60938 C 1259.113 648.60938 1269.1289 596.60231 1269.1289 554 C 1268.972 534.45845 1266.6515 514.93419 1262.0508 495.93555 C 1255.2931 467.76604 1243.6762 440.79594 1227.9785 416.45117 A 34.485659 42.112295 38.570057 0 1 1185.2891 417.97852 A 34.485659 42.112295 38.570057 0 1 1174.4121 386.82031 A 47.190902 57.627352 38.570057 0 1 1111.9238 392.07617 A 47.190902 57.627352 38.570057 0 1 1100.6895 335.62695 A 34.485659 42.112295 38.570057 0 1 1064.8164 333.24805 A 34.485659 42.112295 38.570057 0 1 1053.9805 301.79102 C 1049.4038 301.02106 1044.808 300.3639 1040.1953 299.8457 C 1029.6595 298.65484 1019.0513 298.12037 1008.4492 298.23242 z " />
      <path
         id="path4936"
         style="opacity:1;fill:#ffffff;fill-opacity:0.29787233;stroke:none;stroke-width:31.25;stroke-linecap:round;stroke-linejoin:round"
         d="M 1179.8613 522.98438 C 1176.8693 522.9834 1176.2893 523.43127 1175.0898 524.57617 C 1173.8904 525.72107 1172.2322 528.34432 1170.8613 532.65039 C 1168.1196 541.26251 1166.9194 555.50895 1165.627 570.37695 C 1164.3345 585.24498 1163.0002 600.83394 1157.1602 614.61328 C 1151.932 626.94872 1140.4145 637.96566 1125.0273 640.1543 C 1119.9516 647.05607 1114.2519 653.50001 1107.957 659.33203 C 1082.5094 683.29973 1047.9047 697.40966 1012.9082 697.59961 C 982.98418 697.97267 952.95414 688.64521 928.71289 671.04883 C 905.71014 654.5767 887.93583 630.98309 878.34961 604.36133 C 877.55499 603.03576 876.81816 601.69643 876.16992 600.34961 C 871.69313 591.04832 869.6623 581.05412 867.11133 571.84766 C 864.56036 562.64119 861.5416 554.48552 857.87109 549.70312 C 854.20061 544.92075 851.05884 542.58398 842.30273 542.58398 C 834.89155 542.58398 834.75709 543.60717 832.25195 549.4668 C 829.74684 555.3264 828.30914 566.14597 826.89062 577.88477 C 825.81782 586.76273 824.74961 596.24826 821.59766 605.39844 C 822.89582 610.39635 824.34912 615.35591 826.03711 620.22266 C 833.91572 643.03314 846.14451 664.53779 861.82422 682.98438 C 868.3389 690.6691 875.44752 697.83278 883.10156 704.44336 C 887.57485 708.31059 892.42018 712.12909 897.33789 715.64062 C 906.89146 722.46929 917.06153 728.43403 927.68359 733.44141 C 928.82547 733.95988 930.18157 734.60749 931.41992 735.14648 C 936.57173 737.45456 941.83263 739.51476 947.16406 741.36914 C 947.97123 741.63628 949.1778 742.04316 949.98047 742.31641 C 965.0277 747.2489 980.66455 750.38267 996.45508 751.58398 C 997.20143 751.62868 998.21317 751.70899 999.00586 751.75391 C 1006.019 752.18966 1013.1036 752.22965 1020.0645 751.92383 C 1025.0813 751.69825 1030.088 751.26383 1035.0742 750.66797 C 1036.4538 750.49107 1038.0694 750.28352 1039.5352 750.06836 C 1046.7983 749.00568 1054.0438 747.52916 1061.0879 745.66797 C 1094.4942 736.90351 1125.4919 719.11634 1149.8613 694.63672 C 1172.6711 671.81258 1189.7086 643.26572 1198.916 612.33594 C 1200.3041 607.70551 1201.5265 602.96419 1202.5508 598.3125 C 1202.6737 597.75171 1202.751 597.17933 1202.8691 596.61719 C 1202.1875 591.44803 1201.4723 586.30723 1200.8145 581.12695 C 1198.6352 563.967 1196.1025 547.26022 1192.0684 536.43945 C 1190.0513 531.02908 1187.6926 527.27909 1185.752 525.39648 C 1183.8113 523.5139 1182.7475 522.98532 1179.8613 522.98438 z " />
      <path
         id="path4965"
         style="opacity:1;fill:#ffffff;fill-opacity:0.29787233;stroke:none;stroke-width:31.25;stroke-linecap:round;stroke-linejoin:round"
         d="M 1008.9629 360.27344 C 1004.8403 360.36414 1000.7015 360.53015 996.53906 360.83008 C 992.43444 361.15347 988.46073 361.55256 984.3457 362.13281 C 961.56592 365.28013 939.35229 372.4772 919.0625 383.30273 C 916.29751 384.77705 913.53321 386.33048 910.9082 387.90234 C 902.31451 393.01077 893.95508 398.90698 886.19922 405.33984 C 875.64767 414.0683 866.02122 423.91342 857.5293 434.65625 C 856.98569 435.36495 856.24028 436.30096 855.69727 437.01367 C 853.19207 440.28734 850.87412 443.54504 848.55469 446.98633 C 845.28082 451.85244 842.23651 456.87106 839.41016 462.00977 C 838.62451 463.45826 837.74199 465.10347 836.95117 466.64453 C 825.86047 488.19069 818.8543 511.81403 816.35938 535.91797 C 818.06735 533.19861 820.06979 530.67548 822.56641 528.60938 C 827.97518 524.1458 835.06248 522.03903 842.01953 522.09961 C 851.07042 521.94813 860.36515 524.53839 867.43164 530.33984 C 868.91811 531.52311 870.2517 532.8566 871.53125 534.23828 C 872.73312 526.54324 874.53139 518.94137 877.02344 511.55469 C 886.23613 483.8361 904.20639 459.05289 927.89844 441.92969 C 950.95159 425.09449 979.19095 415.45877 1007.7363 414.79297 C 1009.0329 414.74297 1010.3316 414.73138 1011.6289 414.70508 C 1051.5716 414.73838 1091.1973 432.62788 1117.4336 462.7832 C 1134.2043 481.79459 1145.5891 505.46119 1150.2676 530.36328 C 1150.8277 528.21164 1151.4325 526.07072 1152.1836 523.96875 C 1154.5753 517.31184 1158.4941 510.90639 1164.4707 506.91406 C 1174.1727 500.51355 1187.8397 501.11289 1197.0547 508.14648 C 1199.0391 509.64453 1200.7461 511.42898 1202.3359 513.31641 C 1201.8123 510.97968 1201.2968 508.64043 1200.6895 506.32422 C 1200.4532 505.4544 1200.148 504.31108 1199.875 503.33789 C 1196.5996 491.64499 1192.25 480.25279 1186.8672 469.36719 C 1182.428 460.39666 1177.2119 451.6063 1171.4004 443.37109 C 1162.3655 430.55836 1151.6622 418.74088 1139.7715 408.41211 A 47.190902 63.979973 38.570057 0 1 1104.0039 402.00977 A 47.190902 63.979973 38.570057 0 1 1090.4902 377.02344 C 1089.8625 376.74561 1089.2313 376.46305 1088.6191 376.20508 C 1082.8253 373.71418 1076.9104 371.50742 1070.9043 369.58398 C 1069.1527 369.02698 1067.1999 368.42583 1065.3555 367.90039 C 1062.0979 366.96278 1058.8597 366.1224 1055.6035 365.36523 C 1047.9062 363.5673 1040.1001 362.24357 1032.2422 361.38867 C 1029.9409 361.14782 1027.4508 360.91445 1025.0703 360.75195 C 1022.1855 360.54594 1019.166 360.40588 1016.2695 360.32422 C 1013.8344 360.26812 1011.3985 360.24464 1008.9629 360.27344 z " />
      <rect
         style="opacity:1;fill:#05ff17;fill-opacity:1;stroke:none;stroke-width:5.98697;stroke-linecap:round;stroke-linejoin:round;stroke-dasharray:none;stroke-opacity:1"
         id="rect11737"
         width="50"
         height="14.275591"
         x="404.34955"
         y="828.18353"
         ry="7.1377954"
         transform="rotate(-33.741111)" />
      <rect
         style="opacity:1;fill:#05ff17;fill-opacity:1;stroke:none;stroke-width:5.98697;stroke-linecap:round;stroke-linejoin:round;stroke-dasharray:none;stroke-opacity:1"
         id="rect11787"
         width="50"
         height="14.275591"
         x="809.70947"
         y="-689.4317"
         ry="7.1377954"
         transform="rotate(62.029135)"
         inkscape:transform-center-x="-0.090118524"
         inkscape:transform-center-y="9.0548963" />
      <rect
         style="opacity:1;fill:#ce9400;fill-opacity:1;stroke:none;stroke-width:5.98697;stroke-linecap:round;stroke-linejoin:round;stroke-dasharray:none;stroke-opacity:1"
         id="rect11789"
         width="50"
         height="14.275591"
         x="602.39471"
         y="808.94543"
         ry="7.1377954"
         transform="rotate(-33.741111)"
         inkscape:transform-center-x="-8.9999838"
         inkscape:transform-center-y="-0.9999899" />
      <rect
         style="opacity:1;fill:#ce9400;fill-opacity:1;stroke:none;stroke-width:5.98697;stroke-linecap:round;stroke-linejoin:round;stroke-dasharray:none;stroke-opacity:1"
         id="rect11791"
         width="50"
         height="14.275591"
         x="626.62537"
         y="1006.7177"
         ry="7.1377954"
         transform="rotate(-33.741111)"
         inkscape:transform-center-x="-8.9999734"
         inkscape:transform-center-y="-1.0000178" />
      <rect
         style="opacity:1;fill:#ce9400;fill-opacity:1;stroke:none;stroke-width:5.98697;stroke-linecap:round;stroke-linejoin:round;stroke-dasharray:none;stroke-opacity:1"
         id="rect11761"
         width="50"
         height="14.275591"
         x="-1191.3909"
         y="715.4184"
         ry="7.1377954"
         transform="rotate(-122.79501)"
         inkscape:transform-center-x="0.8511836"
         inkscape:transform-center-y="-9.0153979" />
      <rect
         style="opacity:1;fill:#05ff17;fill-opacity:1;stroke:none;stroke-width:5.98697;stroke-linecap:round;stroke-linejoin:round;stroke-dasharray:none;stroke-opacity:1"
         id="rect11765"
         width="50"
         height="14.275591"
         x="602.99182"
         y="1072.7061"
         ry="7.1377954"
         transform="rotate(-33.741111)"
         inkscape:transform-center-x="-9"
         inkscape:transform-center-y="-1" />
      <rect
         style="opacity:1;fill:#05ff17;fill-opacity:1;stroke:none;stroke-width:5.98697;stroke-linecap:round;stroke-linejoin:round;stroke-dasharray:none;stroke-opacity:1"
         id="rect11767"
         width="50"
         height="14.275591"
         x="758.95874"
         y="1031.0968"
         ry="7.1377954"
         transform="rotate(-32.124722)"
         inkscape:transform-center-x="-9.0246052"
         inkscape:transform-center-y="-0.74576488" />
      <rect
         style="opacity:1;fill:#05ff17;fill-opacity:1;stroke:none;stroke-width:5.98697;stroke-linecap:round;stroke-linejoin:round;stroke-dasharray:none;stroke-opacity:1"
         id="rect11777"
         width="50"
         height="14.275591"
         x="-928.87415"
         y="326.11081"
         ry="7.1377954"
         transform="rotate(-124.42726)"
         inkscape:transform-center-x="1.1078017"
         inkscape:transform-center-y="-8.9873807" />
      <rect
         style="opacity:1;fill:#05efff;fill-opacity:1;stroke:none;stroke-width:5.98697;stroke-linecap:round;stroke-linejoin:round;stroke-dasharray:none;stroke-opacity:1"
         id="rect11781"
         width="50"
         height="14.275591"
         x="-845.58521"
         y="514.13196"
         ry="7.1377954"
         transform="rotate(-124.42726)"
         inkscape:transform-center-x="1.1077835"
         inkscape:transform-center-y="-8.9873633" />
      <rect
         style="opacity:1;fill:#05efff;fill-opacity:1;stroke:none;stroke-width:5.98697;stroke-linecap:round;stroke-linejoin:round;stroke-dasharray:none;stroke-opacity:1"
         id="rect11783"
         width="50"
         height="14.275591"
         x="-979.23181"
         y="661.36157"
         ry="7.1377954"
         transform="rotate(-124.42726)"
         inkscape:transform-center-x="1.107794"
         inkscape:transform-center-y="-8.987379" />
      <rect
         style="opacity:1;fill:#05efff;fill-opacity:1;stroke:none;stroke-width:5.98697;stroke-linecap:round;stroke-linejoin:round;stroke-dasharray:none;stroke-opacity:1"
         id="rect11785"
         width="50"
         height="14.275591"
         x="482.98135"
         y="893.17432"
         ry="7.1377954"
         transform="rotate(-32.24876)"
         inkscape:transform-center-x="-9.0229859"
         inkscape:transform-center-y="-0.7653443" />
    </g>
  </g>
</svg>
