<?xml version="1.0" encoding="UTF-8" standalone="no"?> <svg xmlns:dc="http://purl.org/dc/elements/1.1/" xmlns:cc="http://creativecommons.org/ns#" xmlns:rdf="http://www.w3.org/1999/02/22-rdf-syntax-ns#" xmlns:svg="http://www.w3.org/2000/svg" xmlns="http://www.w3.org/2000/svg" viewBox="0 0 793.70135 793.70135" height="793.70135" width="793.70135" xml:space="preserve" id="svg2"><metadata id="metadata8"></metadata><defs id="defs6"><clipPath id="clipPath18"><path id="path16" d="M 0,0 H 595.276 V 595.276 H 0 Z"></path></clipPath><clipPath id="clipPath46"><path id="path44" d="M 0,0 H 595.276 V 595.276 H 0 Z"></path></clipPath><clipPath id="clipPath62"><path id="path60" d="M 0,0 H 595.276 V 595.276 H 0 Z"></path></clipPath><clipPath id="clipPath86"><path id="path84" d="M 0,0 H 595.276 V 595.276 H 0 Z"></path></clipPath><clipPath id="clipPath106"><path id="path104" d="M 0,0 H 595.276 V 595.276 H 0 Z"></path></clipPath><clipPath id="clipPath126"><path id="path124" d="M 0,0 H 595.276 V 595.276 H 0 Z"></path></clipPath><clipPath id="clipPath154"><path id="path152" d="M 0,0 H 595.276 V 595.276 H 0 Z"></path></clipPath></defs><g transform="matrix(1.3333333,0,0,-1.3333333,0,793.70133)" id="g10"><g id="g12"><g clip-path="url(#clipPath18)" id="g14"><g transform="translate(137.1379,201.9919)" id="g20"><path id="path22" style="fill:#f14b4b;fill-opacity:1;fill-rule:nonzero;stroke:none" d="m 0,0 c -2.693,4.533 -5.838,6.228 -9.121,6.956 l 2.904,1.709 -4.371,7.357 -45.153,-26.564 4.449,-7.488 15.183,8.932 c -0.426,-2.732 -0.254,-6.621 2.244,-10.824 5.503,-9.263 16.523,-11.467 26.227,-5.758 C 2.066,-19.971 5.503,-9.262 0,0 m -12.231,-18.099 c -5.413,-3.185 -11.95,-3.129 -15.345,2.585 -3.434,5.781 -0.293,11.441 5.12,14.625 5.413,3.185 11.91,3.195 15.344,-2.585 3.396,-5.715 0.294,-11.441 -5.119,-14.625"></path></g><g transform="translate(161.6089,161.243)" id="g24"><path id="path26" style="fill:#f14b4b;fill-opacity:1;fill-rule:nonzero;stroke:none" d="m 0,0 c -4.115,3.998 -10.273,6.462 -16.109,4.773 l 0.367,-8.036 c 4.701,1.405 8.084,-0.282 10.169,-2.307 2.908,-2.826 3.606,-6.811 0.928,-9.541 l -1.769,-1.802 c -0.777,1.502 -2.49,4.234 -4.521,6.206 -6.2,6.025 -13.979,8.037 -19.979,1.922 -5.036,-5.132 -3.813,-12.187 1.07,-16.932 3.457,-3.359 7.16,-4.61 10.307,-4.788 l -2.036,-2.075 6.145,-5.971 16.984,17.308 C 8.253,-14.418 6.694,-6.504 0,0 m -11.664,-22.263 -3,-3.058 c -2.658,0.023 -6.146,1.492 -8.56,3.838 -2.744,2.665 -2.668,5.364 -1.007,7.057 2.143,2.184 5.189,1.465 8.042,-1.308 2.25,-2.185 3.523,-4.383 4.525,-6.529"></path></g><g transform="translate(161.4189,177.106)" id="g28"><path id="path30" style="fill:#f14b4b;fill-opacity:1;fill-rule:nonzero;stroke:none" d="M 0,0 C -1.822,-1.856 -1.839,-4.932 0.027,-6.745 1.892,-8.558 5.037,-8.52 6.859,-6.664 8.68,-4.808 8.643,-1.678 6.777,0.134 4.912,1.947 1.822,1.856 0,0"></path></g><g transform="translate(171.8988,166.9233)" id="g32"><path id="path34" style="fill:#f14b4b;fill-opacity:1;fill-rule:nonzero;stroke:none" d="M 0,0 C -1.822,-1.856 -1.784,-4.986 0.081,-6.798 1.947,-8.611 5.037,-8.52 6.859,-6.664 8.68,-4.808 8.698,-1.732 6.832,0.081 4.966,1.894 1.822,1.856 0,0"></path></g></g></g><g transform="translate(176.0643,100.4738)" id="g36"><path id="path38" style="fill:#f14b4b;fill-opacity:1;fill-rule:nonzero;stroke:none" d="M 0,0 19.898,31.719 12.482,36.326 -7.416,4.607 Z"></path></g><g id="g40"><g clip-path="url(#clipPath46)" id="g42"><g transform="translate(193.7026,147.1803)" id="g48"><path id="path50" style="fill:#f14b4b;fill-opacity:1;fill-rule:nonzero;stroke:none" d="m 0,0 c -1.624,-2.589 -0.842,-5.954 1.76,-7.57 2.602,-1.617 5.983,-0.838 7.608,1.751 1.624,2.59 0.801,5.889 -1.801,7.506 C 4.965,3.303 1.624,2.589 0,0"></path></g></g></g><g transform="translate(235.3762,113.0031)" id="g52"><path id="path54" style="fill:#f14b4b;fill-opacity:1;fill-rule:nonzero;stroke:none" d="m 0,0 -18.759,-20.273 2.976,27.398 -8.59,3.878 -3.373,-39.537 8.659,-3.909 27.677,28.565 z"></path></g><g id="g56"><g clip-path="url(#clipPath62)" id="g58"><g transform="translate(287.3916,91.7346)" id="g64"><path id="path66" style="fill:#f14b4b;fill-opacity:1;fill-rule:nonzero;stroke:none" d="m 0,0 c 0.848,9.502 -5.391,14.649 -14.71,15.473 -5.729,0.506 -12.064,-1.462 -15.511,-6.444 l 5.394,-5.992 c 2.748,4.047 6.439,4.87 9.342,4.613 4.049,-0.357 7.123,-3.004 6.784,-6.804 l -0.224,-2.509 c -1.557,0.674 -4.621,1.711 -7.447,1.961 -8.632,0.762 -15.936,-2.576 -16.695,-11.089 -0.638,-7.145 4.794,-11.839 11.593,-12.439 4.812,-0.426 8.475,0.936 11.026,2.779 l -0.258,-2.888 8.556,-0.756 z m -9.59,-9.112 -0.38,-4.256 c -2.072,-1.656 -5.708,-2.714 -9.069,-2.417 -3.819,0.338 -5.476,2.476 -5.266,4.832 0.271,3.041 3.087,4.401 7.059,4.05 3.132,-0.277 5.516,-1.177 7.656,-2.209"></path></g><g transform="translate(262.4501,119.3734)" id="g68"><path id="path70" style="fill:#f14b4b;fill-opacity:1;fill-rule:nonzero;stroke:none" d="m 0,0 c -0.231,-2.584 1.711,-4.978 4.309,-5.207 2.597,-0.23 5.009,1.779 5.239,4.363 C 9.779,1.741 7.76,4.141 5.163,4.37 2.566,4.6 0.231,2.584 0,0"></path></g><g transform="translate(277.04,118.0841)" id="g72"><path id="path74" style="fill:#f14b4b;fill-opacity:1;fill-rule:nonzero;stroke:none" d="m 0,0 c -0.231,-2.584 1.788,-4.984 4.385,-5.214 2.597,-0.229 4.933,1.786 5.163,4.37 C 9.779,1.741 7.837,4.134 5.24,4.364 2.643,4.593 0.231,2.584 0,0"></path></g></g></g><g transform="translate(330.8775,108.9343)" id="g76"><path id="path78" style="fill:#f14b4b;fill-opacity:1;fill-rule:nonzero;stroke:none" d="m 0,0 -11.05,-16.05 -3.954,30.269 -8.67,-1.122 6.921,-52.971 8.669,1.122 -1.453,11.123 2.938,4.151 12.888,-13.415 10.343,1.338 -18.282,19.181 12.449,17.771 z"></path></g><g id="g80"><g clip-path="url(#clipPath86)" id="g82"><g transform="translate(394.1897,109.8229)" id="g88"><path id="path90" style="fill:#f14b4b;fill-opacity:1;fill-rule:nonzero;stroke:none" d="m 0,0 c -4.518,10.277 -15.768,14.542 -25.675,10.23 -9.976,-4.343 -14.394,-15.429 -9.876,-25.706 4.518,-10.277 15.667,-14.503 25.644,-10.16 C -0.001,-21.323 4.518,-10.277 0,0 m -13.073,-18.435 c -5.621,-2.446 -11.592,0.285 -14.328,6.507 -2.735,6.222 -0.698,12.44 4.923,14.887 5.55,2.416 11.522,-0.315 14.258,-6.537 2.735,-6.223 0.698,-12.441 -4.853,-14.857"></path></g><g transform="translate(450.2485,128.4146)" id="g92"><path id="path94" style="fill:#f14b4b;fill-opacity:1;fill-rule:nonzero;stroke:none" d="m 0,0 -36.758,38.929 -6.371,-5.957 12.917,-13.68 c -2.825,-0.129 -6.6,-1.146 -10.177,-4.49 -7.88,-7.368 -7.581,-18.606 0.139,-26.781 7.719,-8.175 18.92,-9.116 26.8,-1.748 3.856,3.605 4.831,7.03 4.88,10.322 l 2.311,-2.447 z m -18.254,-7.748 c -4.863,-4.546 -11.208,-2.73 -15.513,1.83 -4.306,4.561 -5.733,10.975 -0.871,15.521 4.918,4.599 11.207,2.73 15.513,-1.83 4.306,-4.56 5.789,-10.923 0.871,-15.521"></path></g></g></g><g transform="translate(475.6774,156.4397)" id="g96"><path id="path98" style="fill:#f14b4b;fill-opacity:1;fill-rule:nonzero;stroke:none" d="M 0,0 -30.36,22.034 -35.511,15.005 -5.152,-7.029 Z"></path></g><g id="g100"><g clip-path="url(#clipPath106)" id="g102"><g transform="translate(430.1324,177.3099)" id="g108"><path id="path110" style="fill:#f14b4b;fill-opacity:1;fill-rule:nonzero;stroke:none" d="M 0,0 C 2.478,-1.799 5.907,-1.265 7.715,1.201 9.522,3.668 8.986,7.079 6.507,8.878 4.029,10.677 0.662,10.098 -1.145,7.632 -2.953,5.166 -2.478,1.799 0,0"></path></g><g transform="translate(497.8995,192.2521)" id="g112"><path id="path114" style="fill:#f14b4b;fill-opacity:1;fill-rule:nonzero;stroke:none" d="M 0,0 C 1.396,2.632 2.047,4.188 2.047,4.188 L -4.871,7.82 c 0,0 -0.795,-1.825 -1.188,-2.568 -2.291,-4.319 -4.084,-4.758 -8.9,-2.23 l -13.429,7.051 4.187,7.896 -6.918,3.633 -4.187,-7.897 -9.292,4.879 -4.044,-7.627 9.292,-4.879 -2.577,-4.859 6.918,-3.632 2.577,4.859 14.583,-7.656 C -9.439,-9.626 -4.581,-8.639 0,0"></path></g></g></g><g transform="translate(60.2362,265.5446)" id="g116"><path id="path118" style="fill:#f14b4b;fill-opacity:1;fill-rule:nonzero;stroke:none" d="m 0,0 18.262,-0.024 0.028,21.58 61.636,-0.08 0.027,20.785 -61.635,0.08 0.028,21.58 -18.262,0.023 z"></path></g><g id="g120"><g clip-path="url(#clipPath126)" id="g122"><g transform="translate(143.879,416.5653)" id="g128"><path id="path130" style="fill:#f14b4b;fill-opacity:1;fill-rule:nonzero;stroke:none" d="m 0,0 c -19.884,12.056 -44.511,6.106 -56.389,-13.292 -11.937,-19.496 -5.78,-43.711 14.104,-55.766 20.079,-12.174 44.431,-6.457 56.368,13.039 C 25.961,-36.621 20.079,-12.174 0,0 m -1.94,-46.171 c -6.355,-10.378 -18.653,-11.035 -29.082,-4.712 -10.625,6.441 -15.579,17.558 -9.225,27.937 6.355,10.378 18.555,11.094 29.179,4.652 10.43,-6.323 15.482,-17.499 9.128,-27.877"></path></g><g transform="translate(203.8946,463.4231)" id="g132"><path id="path134" style="fill:#f14b4b;fill-opacity:1;fill-rule:nonzero;stroke:none" d="m 0,0 c 6,-10.585 4.926,-17.708 -2.927,-22.116 -7.755,-4.352 -14.436,-1.582 -20.38,8.905 L -45.175,25.37 -63.269,15.215 -41.176,-23.762 c 12.056,-21.27 29.606,-24.72 47.501,-14.677 17.994,10.1 24.105,26.83 12.049,48.1 L -3.719,48.638 -21.813,38.482 Z"></path></g></g></g><g transform="translate(302.1928,446.1884)" id="g136"><path id="path138" style="fill:#f14b4b;fill-opacity:1;fill-rule:nonzero;stroke:none" d="M 0,0 20.887,0.136 20.365,79.638 -0.522,79.503 -0.327,49.86 -26.122,49.692 -26.316,79.335 -47.089,79.2 l 0.521,-79.502 20.773,0.134 -0.2,30.439 25.795,0.167 z"></path></g><g transform="translate(415.8502,402.217)" id="g140"><path id="path142" style="fill:#f14b4b;fill-opacity:1;fill-rule:nonzero;stroke:none" d="M 0,0 28.834,-45.553 44.287,-35.867 26.524,-7.805 78.676,24.882 67.604,42.373 Z"></path></g><g transform="translate(538.1152,297.5245)" id="g144"><path id="path146" style="fill:#f14b4b;fill-opacity:1;fill-rule:nonzero;stroke:none" d="m 0,0 -1.841,22.641 -81.994,22.569 1.731,-21.283 13.337,-3.484 2.302,-28.302 -12.601,-5.572 1.785,-21.962 z m -23.29,9.634 -26.768,-12.07 -1.698,19.833 z"></path></g><g id="g148"><g clip-path="url(#clipPath154)" id="g150"><g transform="translate(374.6082,464.8204)" id="g156"><path id="path158" style="fill:#f14b4b;fill-opacity:1;fill-rule:nonzero;stroke:none" d="m 0,0 c -6,-10.585 -4.926,-17.708 2.927,-22.116 7.755,-4.352 14.436,-1.582 20.38,8.905 L 45.175,25.37 63.269,15.215 41.176,-23.762 C 29.12,-45.032 11.57,-48.482 -6.325,-38.438 -24.319,-28.339 -30.43,-11.609 -18.374,9.661 L 3.719,48.638 21.813,38.483 Z"></path></g></g></g></g></svg> 